<?xml version="1.0" encoding="UTF-8"?>
<svg xmlns="http://www.w3.org/2000/svg" viewBox="0 0 7000 2160">
  <defs>
    <style>
      .cls-1 {
        fill: none;
      }
    </style>
  </defs>
  <g id="Background">
    <rect class="cls-1" width="7000" height="2160"/>
  </g>
  <g id="Design">
    <path d="M7000,0H.03l-.03,944.86c30.11-18.92,21.79-41,25.55-63.58,4.86-29.14,24.61-26.84,31.77-30.02,11.46-5.08,14.55-20.2,12.51-32.57-2.04-12.37-7.59-24.22-7.39-36.76.31-19.41,15.42-25.3,23.49-19.51,12.31,8.84-.13,28.33-2.44,35.9-5.97,19.59,11.44,26.95,21.94,17.55,13.19-11.81-1.04-34-3.59-42.06-6.83-21.59,4.2-44.43,5.58-67.03.89-14.6-2.29-29.1-3.6-43.67-4.74-53,25.81-52.3,38.15-76.67,6.81-13.44,5.47-47.55,27.71-48.75,10.2-.55,18.72,8.71,28.93,9.14,12.18.5,21.14-11.28,32.68-15.21,20.99-7.14,45.42,11.95,43.42,44.36-.99,16.06-8.03,31.26-9.34,47.3-2.32,28.26,15.59,60.98,5.42,141.73-.73,5.77,2.36.1-1.5,95.78l-17.22,418.81c-3.03,75.59-19.03,72.89-42.65,110.05-50.69,79.75,17.31,177.17,101.81,159.48,39.51-8.27,72.36-47.2,72.84-87.57.84-71.28-76.07-113.33-58.22-301.88.26-2.77-14.53-253.74,7.41-482.96,5.14-53.7,29.64-102.16,32.96-155.51,3.27-52.44-6.34-108.35,15.69-157.91,21.39-48.13,72.27-54.72,98.72,15.54,41.08,109.14-12.76,178.31,30.19,224.95,16.4,17.82,24.95-6.12,40.95-12.66,12.92-5.29,28.81-3.71,40.91,2.99,68.98,38.21,60.01,196.73,58.69,508.33-.57,134.67-4.18,130-.12,152.41.29,1.59.54,3.18.78,4.77,7.56,50.53,9.17,101.81,8.15,152.83-.47,23.3,2.47,47,2.32,70.58-.16,25.17-1.26,50.34-3.3,75.43-4.05,50-11.8,99.7-23.19,148.55-11.32,48.55-24.78,96.39-27.98,146.47-1.75,27.45-.4,55.21,6.11,82,6.81,28.03,21.11,56.68,47.13,69.14,30.37,14.54,69.02,1.39,90.49-24.55s27.98-61.61,25.58-95.2c-2.4-33.59-12.8-66-21.78-98.45-13.25-47.85-23.56-96.51-30.87-145.62-15.08-101.29-12.84-201.93-9.22-303.94l20.51-541.2c3.27-81.26-10.53-180.53,60.98-238.58,45.38-36.84,124.31-33.08,152.9,17.9,13.17,23.48,22.99,59.14,49.79,56.69,25.69-2.35,28.15-36.02,53.39-39.6,15.95-2.26,21.78.22,34.78-13.05,11.87-12.12,20.63-27.33,24.82-43.78,2.13-8.36,5.84-42.41,28.39-40.83,7.87.55,14.4,6.87,17.55,14.1,6.76,15.52,29.98,590.59,29.98,592.25,4.18,63.69-33.85,133.23-36.95,183.05-8.05,129.71,180.85,116.25,116.6-42.08-27.21-67.05-47.18-76.59-45.7-233.01,2.09-220.22,10.28-187.91,8.84-230.61-1.13-33.68-27.29-92.46,5.13-147.79,8.23-14.04,19.91-26.21,25.49-41.5,4.93-13.5,4.67-28.24,6.29-42.53,7.89-69.74,83.64-57.13,95.32,12.52,2.64,15.72,14.72,29.37,15.64,45.19.54,9.34-4.01,18.18-5.25,27.45-6.11,45.66,65.2,69.7,81.87,3.2,10.94-43.66-11.55-60.89,9.66-76.02,14.54-10.37,20.91-6.07,41.58-40.1,12.95-21.31,20.7-40.06,48.56-41.32,28.95-1.31,66.38,25.95,63.43,93.73-.5,11.49-4.58,25.32,1.24,36.04,21.5,39.54,76.8-7.97,85.13,73.98,26.07,256.47-44.2,359.79-22.65,444.48,10.16,39.92,47.36,76.7,88,70,38.63-6.37,62.23-48.8,62.94-87.94,1.57-86.58-106.47-221.7-23.56-460.66,5.61-16.17,4.9-33.16,11.98-49.44,21.2-48.76,71.36-76.77,94.2-123.71,21.31-43.82,14.53-93.39,38.76-137.63,12.59,11.18,12.66,21.84,21.77,28.66,12.98,9.72,38.77.68,46.6,62.41,15.14,119.34-10.3,127.42-2.17,153.03,6.55,20.64,36.01,19.7,31.82-7.09-2.4-15.37-7.79-13.09-8.25-43.23-.81-52.93-8.71-176.89,25.12-163.84,13.88,5.35,6.01,26.23,10.27,37.14,2.47,6.32,10.86,10.97,16.12,6.68,9.17-7.48-4.83-26.84,5.37-32.84,3-2.98,6.96-2.67,10.82-.81,12.86,42.6,13.65,116.36,24.08,170.41,9.36,48.51,33.37,92.67,45.65,140.36,14.45,56.09,12.14,78.32,19.77,470.77,2.83,145.44,5.28,293.71-36.94,432.91-15.04,49.59-37.91,95.07-6.27,143.87,31.83,49.08,95.73,61.07,129.57,36.86,16.43-11.76,25.64-31.18,31.3-50.57,24.14-82.64-17.19-143.63-43.68-218.73-39.31-111.45-30.19-221.1-28.47-336.66,1.88-125.47,7.88-250.87,18.01-375.95,1.42-17.56,5.65-34.64,7.79-51.83,2.46-19.79.19-40.64,2.15-60.67,5.76-58.93,28.69-157.07,75.24-193.67,23.43-18.42,58.53-24.75,83.15-7.97,25.94,17.67,32.11,53.06,51.33,77.87,36.91,47.63,83.55,33.48,96.64,165.28,13.13,132.22,13.52,800.91,13.31,826.38-.17,20.43-4.44,40.11-2.26,60.27,28.14,260.69-55.93,372.46-43.51,435.17,7.86,39.72,49.14,69.76,89.35,65.03,40.21-4.73,73.39-43.53,71.82-83.99-2.55-65.72-63.22-74.49-65.81-349.98-.73-77.63-25.47-123.94-12.36-550.37.72-23.52,1.52,22.96,2.52-.54,11.83-279.81,45-343.49,68.79-433.05,8.74-32.92,45.94-61.98,81.52-45.42,10.92,5.08,19.66,14.13,30.7,18.95,39.55,17.27,78.04-25.25,99.69-62.59,69.22-119.41,142.46-80.34,167.99,63.94,23.12,130.67-36.6,191.81-49.03,254.13-9.92,49.74,11.65,87.36,59.56,101.27,44.06,12.79,89.52-22.9,101.41-64.28,15.24-53.07-12.86-107.49-30.15-159.92-27.87-84.51-34.32-237.47,25.21-286.25,24.23-19.86,65.95-20.58,83.1,5.64,19.87,30.38,9.42,94.63,66.88,76.69,31.08-9.7,58.31-6.51,84.69,14.78,44.23,35.68,78.05,103.36,96.39,156.27,37.03,106.85,14.93,274.96-8.12,385.67-5.62,26.97-11.93,55.61-2.38,81.45,22.21,60.1,107.9,60.9,131.24,1.24,13.72-35.08-2.22-73.89-14.77-109.41-51.22-144.98-36.87-299.82-17.75-335.19,55.52-102.72,44.2-93.81,51.01-172.27,9.33-107.5,98-112.63,116.37-47.21,62.88,224.02,15.08,150.51,12.71,236-.76,27.55,4.43,40.7,30,51,24.22,9.76,36.45-13.82,42.13-39.32,5.67-25.49-3.78-51.67-13.42-75.93-9.02-22.7-1.52-36.13-2.6-58.53-.55-11.3-8.13-19.41-4.99-31.05,3.42-12.68,16.08-23.07,29.04-24.34,19.51-1.91,37.88,11.26,48.53,27.72,14.94,23.09,17.92,51.98,16.56,79.45-1.36,27.47-6.62,54.72-6.47,82.22.15,27.5,6.47,56.35,25,76.68,18.52,20.33,51.51,28.98,74.52,13.9,17.39-11.4,31.3-35.3,51.55-30.6,17.39,4.04,22.33,26.33,21.94,44.19-.39,17.85-1.18,39.02,13.17,49.65,20.14,14.92,48.2-5.35,73.09-2.38,15.33,1.83,28.43,12.83,36.23,26.15,7.8,13.33,11.01,28.8,13.17,44.09,6.18,43.64,4.69,88.35-4.37,131.48-2.82,13.44-6.4,27.07-4.78,40.71,1.62,13.63,9.89,27.56,23.16,31.1,16.1,4.29,32.4-7.67,49.03-6.56,16.15,1.09,29.26,14.72,34.78,29.94,8.91,24.55,6.79,57.77,7.53,83.74.91,31.84.94,63.69,2,95.52,3.19,95.89,6.37,191.77,9.56,287.66,1.97,59.13,3.53,120.51-19.94,174.82-12.94,29.94-33.51,58.12-34.57,90.72-1.3,40.21,32.83,78.31,72.93,81.43,40.11,3.11,79.71-29.26,84.63-69.19,4.32-35.09-14.74-68.16-26.72-101.42-17.18-47.67-20.2-99.09-23.06-149.68-14.86-263.28-24.54-524.74-4.12-788.05,2.46-31.77,9.66-65.81,8.47-97.71-.42-11.35-5.68-21.79-6.39-33.57-1.41-23.55,1.07-58.29,17.25-76.27,9.62-10.69,21.61-19.42,29.19-31.64,14.18-22.87,9.87-52,11.4-78.86,1.53-26.86,15.41-58.48,42.25-60.42,25.1-1.81,39.26,20.59,46.13,41.72,5.52,16.97,8.66,35.24,19.08,49.72,11.38,15.8,30.14,25.13,41.25,41.12,10.55,15.18,12.93,34.41,14.58,52.82,7.32,81.76,4.55,164.39,4.9,246.02.37,86.57-.57,173.14-1.25,259.71-.83,106.72-1.1,213.43-1.58,320.15-.15,33.69-.37,67.9-9.82,100.24-11.06,37.85-41.01,84.53-22.92,126.84,26.39,61.71,135.94,36.34,83.45-77.13-9.52-20.58-9.11-37.79-9.07-60.69,0-.1-6.63-929.64-6.64-929.74-1.64-17.74-3.15-29.5,8.69-44.99,9.09-11.89,21.07-21.65,28.27-34.77,18.13-33.04,1.43-79.15,27.1-108.31,13.19-14.99,37.58-18.29,49.58-.23,6.39,9.6,7.72,21.66,7.85,33.19.24,21.76-3.21,43.55-10.15,64.17-3.3,9.81-7.44,19.57-7.93,29.92-.49,10.34,3.61,21.73,12.86,26.4,10.75,5.43,24.68-.62,31.11-10.81,6.42-10.19,6.73-23.14,4.66-35-2.08-11.86-6.31-23.27-8.33-35.15-4.21-24.71,1.7-51,16.09-71.52,4.11-5.86,9-11.54,10.56-18.52,1.36-6.11.11-12.94,3.29-18.33,4.33-7.33,14.51-8.34,21.22-13.58,7.79-6.09,9.79-16.81,14.03-25.74,5.53-11.65,15.71-21.01,27.77-25.54,9.68-3.64,20.41-4.1,30.42-1.56,8.47,2.15,17.07,2.83,25.57,5.38,15.92,4.79,32.38,12.5,43.3,25.45,16.09,19.06,15.86,41.52,19.11,64.71,1.93,13.77.62,28.65.75,42.57.14,14.99.29,29.99.43,44.98.1,10.99.29,22.35,4.86,32.34,4.57,9.99,14.79,18.28,25.7,16.99,9.65-1.13,19.39-9.22,27.97-4.65,4.92,2.62,7,8.4,9.35,13.45,2.34,5.05,6.34,10.41,11.91,10.33,5.21-.07,9.11-5.08,10.41-10.12.89-3.47,1.41-6.95.38-10.29-1.07-3.44-2.92-5.64-2.91-9.53.02-7.02,4.07-14.32,10.54-17.33,10.51-4.87,23.79.39,30.4,9.9,8.35,12.01,7.33,28.17,3.82,42.37s-9.18,28.15-9.08,42.78c.1,14.63,8.16,30.69,22.44,33.84,6.78,1.5,14.86.26,19.75,5.18,6.16,6.21,2.26,16.78,4.48,25.23,2.75,10.47,14.04,15.72,22.2,22.82,15.78,13.74,20.57,35.92,24.45,56.49,6.11,32.29,12.21,64.58,18.32,96.88,5.88,31.07,12.87,62.17,15.11,93.72,3.93,55.27-2.71,111.34-19.99,164.01-6.47,19.72-14.42,39.14-17.38,59.67-2.96,20.54-.31,42.94,12.55,59.22,20.49,25.94,59.56,30.36,86.52,11.15,13.29-9.47,22.51-24.46,24.96-40.59,2.14-14.08-.7-28.5-5.38-41.95-4.68-13.45-11.16-26.19-16.63-39.33-9.19-22.1-15.47-45.4-18.71-69.12-1.62-11.86-2.47-23.82-2.55-35.79-.07-10.39-1.51-20.21-1.69-30.6-.79-46.45,5.28-92.71,11.35-138.77,3.47-26.4,7.39-53.95,22.73-75.71,24.37-34.56,70.71-45.98,97.63-78.18,31.95-38.22-1.98-107.05,61.91-122.34,40.12-9.6,83.39,20.53,92.71,68.24,4,20.47-7.44,39.04-9.06,59.42-1.37,17.25,8.33,38.07,25.63,38.65,23.22.77,29.86-30.05,26.42-47.71-5.13-26.32-25.89-42.29-14.07-72.4,8.65-22.04,31.58-37.65,55.25-37.64,17.07,0,35.17,7.17,50.52-.27,22.16-10.74,22.04-42.53,36.76-62.28,28.2-37.84,105.67-22.42,114,61.28,5.46,54.82-18.63,89.45-7.28,117.54,12.57,31.12,68.7,36.87,62.08-9.51-4.96-34.73-43.91-54.43-23.5-180.65,7.69-47.53,19.83-94.93,17.85-143.04-2.02-49.19-12.81-89.75,16.86-108.23,12.59-7.84,28.13-8.67,41.55-2.35,32.59,15.35,33.87,57.14,33.92,86.72.17,104.83-1.52,102.35,5.02,110.07,3.39,4,9.2,4.24,12.54.2,3.88-4.7-.77-11.06,1.55-16.03,2.38-5.09,13.87-7.67,18.93,8.22,8.69,27.29-6.79,56.31-6.06,84.94,1.01,39.49,31.16,66.26,24.29,172.91-2.85,44.31,6.87,88.07,12.25,131.81,6.17,50.14,3.43,100.06,6.22,150.1,12.72,227.99-1,259.39-7.19,327.69-1.44,15.88-22.51,45.66-30.85,96.79-14.91,91.43,101.47,104.09,121.85,29.46,11.59-42.45-17.61-83.75-34.37-124.44-21.52-52.25-13.05-112.3-13.14-167.75-.13-78.09,4.62-356.71,44.24-429,12.69-23.15,30.85-43.84,37.63-69.36,5.18-19.52,3.25-40.5,9.33-59.76,5.57-17.67,24.43-39.51,43.62-29.25,16.45,8.8,27.32,29.07,27.42,47.37.13,23.37-14.41,45.28-10.78,68.69,7.32,47.15,76.41,31.05,53.26-37.56-6.98-20.7-22.46-47.88-14.07-67.63,4.88-11.48,19.18-15.9,30.85-15.99,30.38-.21,50.44,34.09,80.27,36.92,22.26,2.11,43.52-14.19,65.63-10.9,16.6,2.47,29.91,15.88,36.89,31.14,6.98,15.26,8.7,32.32,10.33,49.02,42.03,430.21,14.58,479.88,25.78,923.81,1.61,63.9,2.86,28.26-5.86,91.75-13.75,100.12-30.9,95.66-42.53,143.07-22.48,91.69,50.89,133.09,101.93,120.11,38.73-9.84,67.18-50.24,63.4-90.03-1.91-20.13-10.9-38.78-18.56-57.49-41.83-102.11-32.91-166.33-32.6-228.28.42-81.93-4.04-64.62-3.5-146.86,1.37-209.44,4.11-418.93,4.11-628.37.63-95.51,11.18-286.28,99.99-250.36,27.42,11.09,62.97,66.23,70.73,84.95,10.16,24.51,11.14,51.71,11.99,78.23,4.32,135.88,8.46,273.7-23.39,405.86-6.04,25.06-13.29,51.85-4.23,75.99,9.34,24.88,36.86,41.57,63.24,38.35,26.38-3.22,49.08-26.02,52.17-52.42,5.56-47.46-53.47-101.81-51.75-238.07.57-44.82,9.96-182.7,46.76-208.3,11.29-7.86,29.74-6.77,36.02,5.47,3.7,7.22,2.39,16.3,8.73,22.63,2.6,2.6,6.59,3.49,9.86,1.8.08-.04.16-.09.24-.13,7.19-4.05,15.19,29.39,18.65,36.89,6,13,18,7.86,18,7.86V0Z"/>
  </g>
</svg>